<svg width="11" height="12" viewBox="0 0 11 12" fill="none" xmlns="http://www.w3.org/2000/svg">
<path d="M10.5319 6.90048C10.2128 9.17671 8.45827 10.9653 6.25772 11.2577C6.29723 11.2172 6.33559 11.1737 6.37275 11.1276C6.60415 10.8408 6.8059 10.4349 6.97249 9.94671C7.15432 9.41385 7.29756 8.77309 7.39028 8.06166C8.10803 7.96595 8.75396 7.81343 9.28802 7.61781C9.76023 7.44485 10.1529 7.23534 10.4303 6.99512C10.4659 6.9643 10.4998 6.93274 10.5319 6.90048ZM0.71072 5.40515C1.02205 3.18465 2.69933 1.42822 4.82413 1.07208C4.79272 1.1056 4.76206 1.14098 4.73218 1.17803C4.50078 1.46484 4.29903 1.87071 4.13243 2.35893C3.94894 2.89667 3.80475 3.54429 3.71211 4.26353C3.05039 4.35987 2.45366 4.50503 1.95462 4.68782C1.48241 4.86078 1.08975 5.0703 0.812361 5.31051C0.776769 5.34134 0.742835 5.37289 0.71072 5.40515ZM3.895 6.15282C3.895 5.5853 3.92575 5.03977 3.98236 4.52965C4.49521 4.4653 5.04653 4.43019 5.62132 4.43019C6.14431 4.43019 6.64787 4.45926 7.12071 4.51297C7.17851 5.02787 7.20992 5.57911 7.20992 6.15282C7.20992 6.72652 7.17851 7.27776 7.12071 7.79267C6.64787 7.84638 6.14431 7.87545 5.62132 7.87545C5.04653 7.87545 4.49521 7.84034 3.98236 7.77599C3.92574 7.26587 3.895 6.72033 3.895 6.15282ZM3.67601 4.57224C3.62328 5.07267 3.595 5.6035 3.595 6.15282C3.595 6.70214 3.62328 7.23297 3.67601 7.7334C3.06434 7.63988 2.51561 7.5038 2.05781 7.33612C1.60483 7.1702 1.24878 6.9762 1.00875 6.76834C0.768318 6.56012 0.658789 6.35165 0.658789 6.15282C0.658789 5.95398 0.768318 5.74551 1.00875 5.5373C1.24878 5.32944 1.60483 5.13544 2.05781 4.96952C2.51561 4.80183 3.06434 4.66576 3.67601 4.57224ZM3.71211 8.04211C3.80475 8.76135 3.94894 9.40897 4.13243 9.94671C4.29903 10.4349 4.50078 10.8408 4.73218 11.1276C4.76206 11.1647 4.79272 11.2 4.82413 11.2336C2.69933 10.8774 1.02205 9.12099 0.71072 6.90048C0.742835 6.93274 0.776769 6.9643 0.812361 6.99512C1.08975 7.23534 1.48241 7.44485 1.95462 7.61781C2.45366 7.8006 3.05039 7.94577 3.71211 8.04211ZM4.41636 9.84982C4.24676 9.3528 4.11065 8.75272 4.02009 8.08284C4.52526 8.14305 5.06346 8.17545 5.62132 8.17545C6.128 8.17545 6.61846 8.14872 7.08269 8.0987C6.99213 8.7622 6.85683 9.35672 6.68857 9.84982C6.52808 10.3201 6.34035 10.69 6.13927 10.9392C5.94303 11.1825 5.74954 11.2931 5.56877 11.2994C5.55297 11.2992 5.53719 11.299 5.52142 11.2987C5.3449 11.287 5.15658 11.1759 4.96566 10.9392C4.76458 10.69 4.57685 10.3201 4.41636 9.84982ZM6.25772 1.04793C8.45827 1.34037 10.2128 3.12893 10.5319 5.40516C10.4998 5.37289 10.4659 5.34134 10.4303 5.31051C10.1529 5.0703 9.76023 4.86078 9.28802 4.68782C8.75396 4.49221 8.10802 4.33968 7.39028 4.24397C7.29756 3.53255 7.15432 2.89179 6.97249 2.35893C6.8059 1.87071 6.60415 1.46484 6.37275 1.17803C6.33559 1.13196 6.29723 1.08847 6.25772 1.04793ZM7.50992 6.15282C7.50992 5.59599 7.48088 5.05817 7.42675 4.55175C8.09475 4.64535 8.69239 4.78915 9.18484 4.96952C9.63781 5.13544 9.99386 5.32944 10.2339 5.5373C10.4743 5.74551 10.5839 5.95398 10.5839 6.15282C10.5839 6.35165 10.4743 6.56012 10.2339 6.76834C9.99386 6.9762 9.63781 7.1702 9.18484 7.33612C8.69239 7.51649 8.09475 7.66028 7.42675 7.75389C7.48088 7.24746 7.50992 6.70964 7.50992 6.15282ZM7.08269 4.20693C6.61846 4.15691 6.128 4.13019 5.62132 4.13019C5.06345 4.13019 4.52526 4.16258 4.02009 4.2228C4.11065 3.55291 4.24676 2.95284 4.41636 2.45581C4.57685 1.98549 4.76458 1.61565 4.96566 1.3664C5.15658 1.12975 5.3449 1.0186 5.52142 1.00698C5.53719 1.00666 5.55297 1.00641 5.56877 1.00624C5.74954 1.01251 5.94303 1.12316 6.13927 1.3664C6.34035 1.61565 6.52808 1.98549 6.68857 2.45581C6.85683 2.94891 6.99213 3.54344 7.08269 4.20693Z" stroke="#E4B7FF" stroke-width="0.3"/>
</svg>
